STARTFONT 2.1
COMMENT by Uwe Freese, mail@uwe-freese.de 09/2002. V1.1
COMMENT
COMMENT This font was originally converted from the old RockBox
COMMENT proportional font that was saved in arrays of columns.
COMMENT After conversion, many characters have changed for better
COMMENT readability, some characters were added and the digits
COMMENT changed to have the same width.
COMMENT
COMMENT If someone finds errors (especially in the first font definition
COMMENT lines), please let me know it.
COMMENT
COMMENT Permission to use, copy, modify, and distribute this
COMMENT software for any purpose and without fee is hereby granted,
COMMENT provided that the above copyright notice appear in all
COMMENT copies and that both that copyright notice and this
COMMENT permission notice appear in supporting documentation, and
COMMENT that the name of Uwe Freese not be used in advertising or
COMMENT publicity pertaining to distribution of the software without
COMMENT specific, written prior permission. Uwe Freese makes no
COMMENT representations about the suitability of this software for
COMMENT any purpose. It is provided "as is" without express or
COMMENT implied warranty.
COMMENT
COMMENT modified by Kevin Arutyunyan for use with rpi-rgb-led-matrix
COMMENT edited with Fony
FONT rockbox-prop-font
SIZE 8 100 100
FONTBOUNDINGBOX 8 8 0 0
STARTPROPERTIES 6
RESOLUTION_X 100
RESOLUTION_Y 100
FONT_ASCENT 8
FONT_DESCENT 0
DEFAULT_CHAR 32
ENDPROPERTIES
CHARS 192
STARTCHAR 032
ENCODING 32
SWIDTH 360 0
DWIDTH 4 0
BBX 4 8 0 0
BITMAP
00
00
00
00
00
00
00
00
ENDCHAR
STARTCHAR 033
ENCODING 33
SWIDTH 144 0
DWIDTH 2 0
BBX 2 8 0 0
BITMAP
00
80
80
80
80
80
00
80
ENDCHAR
STARTCHAR 034
ENCODING 34
SWIDTH 288 0
DWIDTH 4 0
BBX 4 8 0 0
BITMAP
00
A0
A0
A0
00
00
00
00
ENDCHAR
STARTCHAR 035
ENCODING 35
SWIDTH 432 0
DWIDTH 6 0
BBX 6 8 0 0
BITMAP
00
00
50
F8
50
F8
50
00
ENDCHAR
STARTCHAR 036
ENCODING 36
SWIDTH 432 0
DWIDTH 6 0
BBX 6 8 0 0
BITMAP
00
20
78
A0
70
28
F0
20
ENDCHAR
STARTCHAR 037
ENCODING 37
SWIDTH 432 0
DWIDTH 6 0
BBX 6 8 0 0
BITMAP
00
00
00
88
10
20
40
88
ENDCHAR
STARTCHAR 038
ENCODING 38
SWIDTH 504 0
DWIDTH 7 0
BBX 7 8 0 0
BITMAP
00
70
88
90
60
94
88
74
ENDCHAR
STARTCHAR 039
ENCODING 39
SWIDTH 144 0
DWIDTH 2 0
BBX 2 8 0 0
BITMAP
00
80
80
80
00
00
00
00
ENDCHAR
STARTCHAR 040
ENCODING 40
SWIDTH 216 0
DWIDTH 3 0
BBX 3 8 0 0
BITMAP
00
40
80
80
80
80
80
40
ENDCHAR
STARTCHAR 041
ENCODING 41
SWIDTH 216 0
DWIDTH 3 0
BBX 3 8 0 0
BITMAP
00
80
40
40
40
40
40
80
ENDCHAR
STARTCHAR 042
ENCODING 42
SWIDTH 432 0
DWIDTH 6 0
BBX 6 8 0 0
BITMAP
00
00
A8
70
F8
70
A8
00
ENDCHAR
STARTCHAR 043
ENCODING 43
SWIDTH 432 0
DWIDTH 6 0
BBX 6 8 0 0
BITMAP
00
00
20
20
F8
20
20
00
ENDCHAR
STARTCHAR 044
ENCODING 44
SWIDTH 216 0
DWIDTH 3 0
BBX 3 8 0 0
BITMAP
00
00
00
00
00
00
40
80
ENDCHAR
STARTCHAR 045
ENCODING 45
SWIDTH 432 0
DWIDTH 5 0
BBX 5 8 0 0
BITMAP
00
00
00
00
F0
00
00
00
ENDCHAR
STARTCHAR 046
ENCODING 46
SWIDTH 144 0
DWIDTH 2 0
BBX 2 8 0 0
BITMAP
00
00
00
00
00
00
00
80
ENDCHAR
STARTCHAR 047
ENCODING 47
SWIDTH 360 0
DWIDTH 4 0
BBX 4 8 0 0
BITMAP
00
20
20
40
40
40
80
80
ENDCHAR
STARTCHAR 048
ENCODING 48
SWIDTH 360 0
DWIDTH 5 0
BBX 5 8 0 0
BITMAP
00
60
90
B0
D0
90
90
60
ENDCHAR
STARTCHAR 049
ENCODING 49
SWIDTH 360 0
DWIDTH 5 0
BBX 5 8 0 0
BITMAP
00
20
60
A0
20
20
20
20
ENDCHAR
STARTCHAR 050
ENCODING 50
SWIDTH 360 0
DWIDTH 5 0
BBX 5 8 0 0
BITMAP
00
60
90
10
60
80
80
F0
ENDCHAR
STARTCHAR 051
ENCODING 51
SWIDTH 360 0
DWIDTH 5 0
BBX 5 8 0 0
BITMAP
00
60
90
10
60
10
90
60
ENDCHAR
STARTCHAR 052
ENCODING 52
SWIDTH 360 0
DWIDTH 5 0
BBX 5 8 0 0
BITMAP
00
20
60
A0
F0
20
20
20
ENDCHAR
STARTCHAR 053
ENCODING 53
SWIDTH 360 0
DWIDTH 5 0
BBX 5 8 0 0
BITMAP
00
F0
80
80
60
10
90
60
ENDCHAR
STARTCHAR 054
ENCODING 54
SWIDTH 360 0
DWIDTH 5 0
BBX 5 8 0 0
BITMAP
00
60
80
80
E0
90
90
60
ENDCHAR
STARTCHAR 055
ENCODING 55
SWIDTH 360 0
DWIDTH 5 0
BBX 5 8 0 0
BITMAP
00
F0
10
10
20
20
20
20
ENDCHAR
STARTCHAR 056
ENCODING 56
SWIDTH 360 0
DWIDTH 5 0
BBX 5 8 0 0
BITMAP
00
60
90
90
60
90
90
60
ENDCHAR
STARTCHAR 057
ENCODING 57
SWIDTH 360 0
DWIDTH 5 0
BBX 5 8 0 0
BITMAP
00
60
90
90
70
10
10
60
ENDCHAR
STARTCHAR 058
ENCODING 58
SWIDTH 144 0
DWIDTH 2 0
BBX 2 8 0 0
BITMAP
00
00
80
00
00
00
80
00
ENDCHAR
STARTCHAR 059
ENCODING 59
SWIDTH 216 0
DWIDTH 3 0
BBX 3 8 0 0
BITMAP
00
00
40
00
00
00
40
80
ENDCHAR
STARTCHAR 060
ENCODING 60
SWIDTH 288 0
DWIDTH 4 0
BBX 4 8 0 0
BITMAP
00
00
20
40
80
40
20
00
ENDCHAR
STARTCHAR 061
ENCODING 61
SWIDTH 360 0
DWIDTH 5 0
BBX 5 8 0 0
BITMAP
00
00
00
F0
00
F0
00
00
ENDCHAR
STARTCHAR 062
ENCODING 62
SWIDTH 288 0
DWIDTH 4 0
BBX 4 8 0 0
BITMAP
00
00
80
40
20
40
80
00
ENDCHAR
STARTCHAR 063
ENCODING 63
SWIDTH 360 0
DWIDTH 5 0
BBX 5 8 0 0
BITMAP
00
60
90
10
60
40
00
40
ENDCHAR
STARTCHAR 064
ENCODING 64
SWIDTH 432 0
DWIDTH 6 0
BBX 6 8 0 0
BITMAP
00
70
88
B8
B0
80
70
00
ENDCHAR
STARTCHAR 065
ENCODING 65
SWIDTH 360 0
DWIDTH 5 0
BBX 5 8 0 0
BITMAP
00
60
90
90
F0
90
90
90
ENDCHAR
STARTCHAR 066
ENCODING 66
SWIDTH 360 0
DWIDTH 5 0
BBX 5 8 0 0
BITMAP
00
E0
90
90
E0
90
90
E0
ENDCHAR
STARTCHAR 067
ENCODING 67
SWIDTH 360 0
DWIDTH 5 0
BBX 5 8 0 0
BITMAP
00
60
90
80
80
80
90
60
ENDCHAR
STARTCHAR 068
ENCODING 68
SWIDTH 360 0
DWIDTH 5 0
BBX 5 8 0 0
BITMAP
00
E0
90
90
90
90
90
E0
ENDCHAR
STARTCHAR 069
ENCODING 69
SWIDTH 360 0
DWIDTH 5 0
BBX 5 8 0 0
BITMAP
00
F0
80
80
E0
80
80
F0
ENDCHAR
STARTCHAR 070
ENCODING 70
SWIDTH 360 0
DWIDTH 5 0
BBX 5 8 0 0
BITMAP
00
F0
80
80
E0
80
80
80
ENDCHAR
STARTCHAR 071
ENCODING 71
SWIDTH 360 0
DWIDTH 5 0
BBX 5 8 0 0
BITMAP
00
70
80
80
B0
90
90
70
ENDCHAR
STARTCHAR 072
ENCODING 72
SWIDTH 360 0
DWIDTH 5 0
BBX 5 8 0 0
BITMAP
00
90
90
90
F0
90
90
90
ENDCHAR
STARTCHAR 073
ENCODING 73
SWIDTH 288 0
DWIDTH 4 0
BBX 4 8 0 0
BITMAP
00
E0
40
40
40
40
40
E0
ENDCHAR
STARTCHAR 074
ENCODING 74
SWIDTH 360 0
DWIDTH 5 0
BBX 5 8 0 0
BITMAP
00
10
10
10
10
10
90
60
ENDCHAR
STARTCHAR 075
ENCODING 75
SWIDTH 360 0
DWIDTH 5 0
BBX 5 8 0 0
BITMAP
00
90
90
A0
C0
A0
90
90
ENDCHAR
STARTCHAR 076
ENCODING 76
SWIDTH 360 0
DWIDTH 5 0
BBX 5 8 0 0
BITMAP
00
80
80
80
80
80
80
F0
ENDCHAR
STARTCHAR 077
ENCODING 77
SWIDTH 432 0
DWIDTH 6 0
BBX 6 8 0 0
BITMAP
00
50
A8
A8
A8
88
88
88
ENDCHAR
STARTCHAR 078
ENCODING 78
SWIDTH 360 0
DWIDTH 5 0
BBX 5 8 0 0
BITMAP
00
90
D0
D0
B0
B0
90
90
ENDCHAR
STARTCHAR 079
ENCODING 79
SWIDTH 360 0
DWIDTH 5 0
BBX 5 8 0 0
BITMAP
00
60
90
90
90
90
90
60
ENDCHAR
STARTCHAR 080
ENCODING 80
SWIDTH 360 0
DWIDTH 5 0
BBX 5 8 0 0
BITMAP
00
E0
90
90
E0
80
80
80
ENDCHAR
STARTCHAR 081
ENCODING 81
SWIDTH 432 0
DWIDTH 6 0
BBX 6 8 0 0
BITMAP
00
60
90
90
90
B0
90
68
ENDCHAR
STARTCHAR 082
ENCODING 82
SWIDTH 360 0
DWIDTH 5 0
BBX 5 8 0 0
BITMAP
00
E0
90
90
E0
90
90
90
ENDCHAR
STARTCHAR 083
ENCODING 83
SWIDTH 360 0
DWIDTH 5 0
BBX 5 8 0 0
BITMAP
00
70
80
80
60
10
10
E0
ENDCHAR
STARTCHAR 084
ENCODING 84
SWIDTH 432 0
DWIDTH 6 0
BBX 6 8 0 0
BITMAP
00
F8
20
20
20
20
20
20
ENDCHAR
STARTCHAR 085
ENCODING 85
SWIDTH 360 0
DWIDTH 5 0
BBX 5 8 0 0
BITMAP
00
90
90
90
90
90
90
60
ENDCHAR
STARTCHAR 086
ENCODING 86
SWIDTH 432 0
DWIDTH 6 0
BBX 6 8 0 0
BITMAP
00
88
88
88
88
88
50
20
ENDCHAR
STARTCHAR 087
ENCODING 87
SWIDTH 432 0
DWIDTH 6 0
BBX 6 8 0 0
BITMAP
00
88
88
88
A8
A8
A8
50
ENDCHAR
STARTCHAR 088
ENCODING 88
SWIDTH 432 0
DWIDTH 6 0
BBX 6 8 0 0
BITMAP
00
88
88
50
20
50
88
88
ENDCHAR
STARTCHAR 089
ENCODING 89
SWIDTH 432 0
DWIDTH 6 0
BBX 6 8 0 0
BITMAP
00
88
88
88
50
20
20
20
ENDCHAR
STARTCHAR 090
ENCODING 90
SWIDTH 432 0
DWIDTH 6 0
BBX 6 8 0 0
BITMAP
00
F8
08
10
20
40
80
F8
ENDCHAR
STARTCHAR 091
ENCODING 91
SWIDTH 216 0
DWIDTH 3 0
BBX 3 8 0 0
BITMAP
00
C0
80
80
80
80
80
C0
ENDCHAR
STARTCHAR 092
ENCODING 92
SWIDTH 360 0
DWIDTH 5 0
BBX 5 8 0 0
BITMAP
80
80
40
40
20
20
10
10
ENDCHAR
STARTCHAR 093
ENCODING 93
SWIDTH 216 0
DWIDTH 3 0
BBX 3 8 0 0
BITMAP
00
C0
40
40
40
40
40
C0
ENDCHAR
STARTCHAR 094
ENCODING 94
SWIDTH 432 0
DWIDTH 6 0
BBX 6 8 0 0
BITMAP
00
20
50
88
00
00
00
00
ENDCHAR
STARTCHAR 095
ENCODING 95
SWIDTH 432 0
DWIDTH 6 0
BBX 6 8 0 0
BITMAP
00
00
00
00
00
00
00
F8
ENDCHAR
STARTCHAR 096
ENCODING 96
SWIDTH 216 0
DWIDTH 3 0
BBX 3 8 0 0
BITMAP
00
80
80
40
00
00
00
00
ENDCHAR
STARTCHAR 097
ENCODING 97
SWIDTH 360 0
DWIDTH 5 0
BBX 5 8 0 0
BITMAP
00
00
00
60
10
70
90
70
ENDCHAR
STARTCHAR 098
ENCODING 98
SWIDTH 360 0
DWIDTH 5 0
BBX 5 8 0 0
BITMAP
00
80
80
E0
90
90
90
E0
ENDCHAR
STARTCHAR 099
ENCODING 99
SWIDTH 360 0
DWIDTH 5 0
BBX 5 8 0 0
BITMAP
00
00
00
70
80
80
80
70
ENDCHAR
STARTCHAR 100
ENCODING 100
SWIDTH 360 0
DWIDTH 5 0
BBX 5 8 0 0
BITMAP
00
10
10
70
90
90
90
70
ENDCHAR
STARTCHAR 101
ENCODING 101
SWIDTH 360 0
DWIDTH 5 0
BBX 5 8 0 0
BITMAP
00
00
00
60
90
F0
80
70
ENDCHAR
STARTCHAR 102
ENCODING 102
SWIDTH 360 0
DWIDTH 5 0
BBX 5 8 0 0
BITMAP
00
30
40
40
E0
40
40
40
ENDCHAR
STARTCHAR 103
ENCODING 103
SWIDTH 360 0
DWIDTH 5 0
BBX 5 8 0 0
BITMAP
00
00
00
70
90
70
10
E0
ENDCHAR
STARTCHAR 104
ENCODING 104
SWIDTH 360 0
DWIDTH 5 0
BBX 5 8 0 0
BITMAP
00
80
80
E0
90
90
90
90
ENDCHAR
STARTCHAR 105
ENCODING 105
SWIDTH 144 0
DWIDTH 2 0
BBX 2 8 0 0
BITMAP
00
80
00
80
80
80
80
80
ENDCHAR
STARTCHAR 106
ENCODING 106
SWIDTH 360 0
DWIDTH 5 0
BBX 5 8 0 0
BITMAP
00
10
00
30
10
10
90
60
ENDCHAR
STARTCHAR 107
ENCODING 107
SWIDTH 360 0
DWIDTH 5 0
BBX 5 8 0 0
BITMAP
00
80
80
90
A0
C0
A0
90
ENDCHAR
STARTCHAR 108
ENCODING 108
SWIDTH 144 0
DWIDTH 2 0
BBX 2 8 0 0
BITMAP
00
80
80
80
80
80
80
80
ENDCHAR
STARTCHAR 109
ENCODING 109
SWIDTH 432 0
DWIDTH 6 0
BBX 6 8 0 0
BITMAP
00
00
00
50
A8
A8
88
88
ENDCHAR
STARTCHAR 110
ENCODING 110
SWIDTH 360 0
DWIDTH 5 0
BBX 5 8 0 0
BITMAP
00
00
00
E0
90
90
90
90
ENDCHAR
STARTCHAR 111
ENCODING 111
SWIDTH 360 0
DWIDTH 5 0
BBX 5 8 0 0
BITMAP
00
00
00
60
90
90
90
60
ENDCHAR
STARTCHAR 112
ENCODING 112
SWIDTH 360 0
DWIDTH 5 0
BBX 5 8 0 0
BITMAP
00
00
00
E0
90
E0
80
80
ENDCHAR
STARTCHAR 113
ENCODING 113
SWIDTH 360 0
DWIDTH 5 0
BBX 5 8 0 0
BITMAP
00
00
00
70
90
70
10
10
ENDCHAR
STARTCHAR 114
ENCODING 114
SWIDTH 288 0
DWIDTH 4 0
BBX 4 8 0 0
BITMAP
00
00
00
A0
C0
80
80
80
ENDCHAR
STARTCHAR 115
ENCODING 115
SWIDTH 360 0
DWIDTH 5 0
BBX 5 8 0 0
BITMAP
00
00
00
70
80
60
10
E0
ENDCHAR
STARTCHAR 116
ENCODING 116
SWIDTH 288 0
DWIDTH 4 0
BBX 4 8 0 0
BITMAP
00
40
40
E0
40
40
40
40
ENDCHAR
STARTCHAR 117
ENCODING 117
SWIDTH 360 0
DWIDTH 5 0
BBX 5 8 0 0
BITMAP
00
00
00
90
90
90
90
60
ENDCHAR
STARTCHAR 118
ENCODING 118
SWIDTH 432 0
DWIDTH 6 0
BBX 6 8 0 0
BITMAP
00
00
00
88
88
88
50
20
ENDCHAR
STARTCHAR 119
ENCODING 119
SWIDTH 432 0
DWIDTH 6 0
BBX 6 8 0 0
BITMAP
00
00
00
88
88
A8
A8
50
ENDCHAR
STARTCHAR 120
ENCODING 120
SWIDTH 288 0
DWIDTH 4 0
BBX 4 8 0 0
BITMAP
00
00
00
A0
A0
40
A0
A0
ENDCHAR
STARTCHAR 121
ENCODING 121
SWIDTH 360 0
DWIDTH 5 0
BBX 5 8 0 0
BITMAP
00
00
00
90
90
70
10
60
ENDCHAR
STARTCHAR 122
ENCODING 122
SWIDTH 288 0
DWIDTH 4 0
BBX 4 8 0 0
BITMAP
00
00
00
E0
20
40
80
E0
ENDCHAR
STARTCHAR 123
ENCODING 123
SWIDTH 288 0
DWIDTH 4 0
BBX 4 8 0 0
BITMAP
00
20
40
40
80
40
40
20
ENDCHAR
STARTCHAR 124
ENCODING 124
SWIDTH 144 0
DWIDTH 2 0
BBX 2 8 0 0
BITMAP
80
80
80
80
80
80
80
80
ENDCHAR
STARTCHAR 125
ENCODING 125
SWIDTH 288 0
DWIDTH 4 0
BBX 4 8 0 0
BITMAP
00
80
40
40
20
40
40
80
ENDCHAR
STARTCHAR 126
ENCODING 126
SWIDTH 432 0
DWIDTH 6 0
BBX 6 8 0 0
BITMAP
00
E8
B8
00
00
00
00
00
ENDCHAR
STARTCHAR 161
ENCODING 161
SWIDTH 144 0
DWIDTH 2 0
BBX 2 8 0 0
BITMAP
00
80
00
80
80
80
80
80
ENDCHAR
STARTCHAR 162
ENCODING 162
SWIDTH 432 0
DWIDTH 6 0
BBX 6 8 0 0
BITMAP
00
00
20
70
A8
A0
A8
70
ENDCHAR
STARTCHAR 163
ENCODING 163
SWIDTH 432 0
DWIDTH 6 0
BBX 6 8 0 0
BITMAP
00
30
48
40
F0
40
40
F8
ENDCHAR
STARTCHAR 164
ENCODING 164
SWIDTH 360 0
DWIDTH 5 0
BBX 5 8 0 0
BITMAP
00
30
40
E0
40
E0
40
30
ENDCHAR
STARTCHAR 165
ENCODING 165
SWIDTH 432 0
DWIDTH 6 0
BBX 6 8 0 0
BITMAP
00
88
88
50
F8
20
F8
20
ENDCHAR
STARTCHAR 166
ENCODING 166
SWIDTH 144 0
DWIDTH 2 0
BBX 2 8 0 0
BITMAP
00
80
80
80
00
80
80
80
ENDCHAR
STARTCHAR 167
ENCODING 167
SWIDTH 360 0
DWIDTH 5 0
BBX 5 8 0 0
BITMAP
00
70
80
60
90
60
10
E0
ENDCHAR
STARTCHAR 168
ENCODING 168
SWIDTH 360 0
DWIDTH 5 0
BBX 5 8 0 0
BITMAP
00
90
00
00
00
00
00
00
ENDCHAR
STARTCHAR 169
ENCODING 169
SWIDTH 576 0
DWIDTH 8 0
BBX 8 8 0 0
BITMAP
00
7C
82
BA
A2
BA
82
7C
ENDCHAR
STARTCHAR 170
ENCODING 170
SWIDTH 504 0
DWIDTH 7 0
BBX 7 8 0 0
BITMAP
00
78
08
38
48
7C
00
00
ENDCHAR
STARTCHAR 171
ENCODING 171
SWIDTH 432 0
DWIDTH 6 0
BBX 6 8 0 0
BITMAP
00
00
28
50
A0
50
28
00
ENDCHAR
STARTCHAR 172
ENCODING 172
SWIDTH 432 0
DWIDTH 6 0
BBX 6 8 0 0
BITMAP
00
F8
08
00
00
00
00
00
ENDCHAR
STARTCHAR 173
ENCODING 173
SWIDTH 432 0
DWIDTH 6 0
BBX 6 8 0 0
BITMAP
00
00
00
F8
00
00
00
00
ENDCHAR
STARTCHAR 174
ENCODING 174
SWIDTH 576 0
DWIDTH 8 0
BBX 8 8 0 0
BITMAP
00
7C
82
BA
AA
B2
AA
7C
ENDCHAR
STARTCHAR 175
ENCODING 175
SWIDTH 576 0
DWIDTH 8 0
BBX 8 8 0 0
BITMAP
00
FE
00
00
00
00
00
00
ENDCHAR
STARTCHAR 176
ENCODING 176
SWIDTH 360 0
DWIDTH 5 0
BBX 5 8 0 0
BITMAP
00
60
90
60
00
00
00
00
ENDCHAR
STARTCHAR 177
ENCODING 177
SWIDTH 432 0
DWIDTH 6 0
BBX 6 8 0 0
BITMAP
00
20
F8
20
00
F8
00
00
ENDCHAR
STARTCHAR 178
ENCODING 178
SWIDTH 360 0
DWIDTH 5 0
BBX 5 8 0 0
BITMAP
00
E0
20
C0
F0
00
00
00
ENDCHAR
STARTCHAR 179
ENCODING 179
SWIDTH 288 0
DWIDTH 4 0
BBX 4 8 0 0
BITMAP
00
E0
60
20
E0
00
00
00
ENDCHAR
STARTCHAR 180
ENCODING 180
SWIDTH 216 0
DWIDTH 3 0
BBX 3 8 0 0
BITMAP
00
40
80
00
00
00
00
00
ENDCHAR
STARTCHAR 181
ENCODING 181
SWIDTH 360 0
DWIDTH 5 0
BBX 5 8 0 0
BITMAP
00
90
90
E0
80
00
00
00
ENDCHAR
STARTCHAR 182
ENCODING 182
SWIDTH 504 0
DWIDTH 7 0
BBX 7 8 0 0
BITMAP
00
7C
F4
F4
34
14
14
14
ENDCHAR
STARTCHAR 183
ENCODING 183
SWIDTH 360 0
DWIDTH 5 0
BBX 5 8 0 0
BITMAP
00
00
00
60
F0
60
00
00
ENDCHAR
STARTCHAR 184
ENCODING 184
SWIDTH 360 0
DWIDTH 5 0
BBX 5 8 0 0
BITMAP
00
00
00
00
00
00
20
10
ENDCHAR
STARTCHAR 185
ENCODING 185
SWIDTH 288 0
DWIDTH 4 0
BBX 4 8 0 0
BITMAP
00
C0
40
E0
00
00
00
00
ENDCHAR
STARTCHAR 186
ENCODING 186
SWIDTH 360 0
DWIDTH 5 0
BBX 5 8 0 0
BITMAP
00
60
90
60
00
00
00
00
ENDCHAR
STARTCHAR 187
ENCODING 187
SWIDTH 432 0
DWIDTH 6 0
BBX 6 8 0 0
BITMAP
00
00
A0
50
28
50
A0
00
ENDCHAR
STARTCHAR 188
ENCODING 188
SWIDTH 504 0
DWIDTH 7 0
BBX 7 8 0 0
BITMAP
00
88
90
A0
54
9C
04
00
ENDCHAR
STARTCHAR 189
ENCODING 189
SWIDTH 576 0
DWIDTH 8 0
BBX 8 8 0 0
BITMAP
00
88
90
A0
5C
84
18
1E
ENDCHAR
STARTCHAR 190
ENCODING 190
SWIDTH 504 0
DWIDTH 7 0
BBX 7 8 0 0
BITMAP
00
E4
68
30
E0
54
9C
04
ENDCHAR
STARTCHAR 191
ENCODING 191
SWIDTH 360 0
DWIDTH 5 0
BBX 5 8 0 0
BITMAP
00
20
00
20
60
80
90
60
ENDCHAR
STARTCHAR 192
ENCODING 192
SWIDTH 360 0
DWIDTH 5 0
BBX 5 8 0 0
BITMAP
80
40
60
90
90
F0
90
90
ENDCHAR
STARTCHAR 193
ENCODING 193
SWIDTH 360 0
DWIDTH 5 0
BBX 5 8 0 0
BITMAP
10
20
60
90
90
F0
90
90
ENDCHAR
STARTCHAR 194
ENCODING 194
SWIDTH 360 0
DWIDTH 5 0
BBX 5 8 0 0
BITMAP
60
90
60
90
90
F0
90
90
ENDCHAR
STARTCHAR 195
ENCODING 195
SWIDTH 360 0
DWIDTH 5 0
BBX 5 8 0 0
BITMAP
50
A0
60
90
90
F0
90
90
ENDCHAR
STARTCHAR 196
ENCODING 196
SWIDTH 360 0
DWIDTH 5 0
BBX 5 8 0 0
BITMAP
90
00
60
90
90
F0
90
90
ENDCHAR
STARTCHAR 197
ENCODING 197
SWIDTH 360 0
DWIDTH 5 0
BBX 5 8 0 0
BITMAP
60
90
60
90
90
F0
90
90
ENDCHAR
STARTCHAR 198
ENCODING 198
SWIDTH 576 0
DWIDTH 8 0
BBX 8 8 0 0
BITMAP
00
7E
90
90
FC
90
90
9E
ENDCHAR
STARTCHAR 199
ENCODING 199
SWIDTH 504 0
DWIDTH 7 0
BBX 7 8 0 0
BITMAP
00
78
84
80
80
84
78
20
ENDCHAR
STARTCHAR 200
ENCODING 200
SWIDTH 360 0
DWIDTH 5 0
BBX 5 8 0 0
BITMAP
40
20
70
80
E0
80
80
70
ENDCHAR
STARTCHAR 201
ENCODING 201
SWIDTH 360 0
DWIDTH 5 0
BBX 5 8 0 0
BITMAP
20
40
70
80
E0
80
80
70
ENDCHAR
STARTCHAR 202
ENCODING 202
SWIDTH 360 0
DWIDTH 5 0
BBX 5 8 0 0
BITMAP
60
90
70
80
E0
80
80
70
ENDCHAR
STARTCHAR 203
ENCODING 203
SWIDTH 360 0
DWIDTH 5 0
BBX 5 8 0 0
BITMAP
90
00
70
80
E0
80
80
70
ENDCHAR
STARTCHAR 204
ENCODING 204
SWIDTH 288 0
DWIDTH 4 0
BBX 4 8 0 0
BITMAP
80
40
E0
40
40
40
40
E0
ENDCHAR
STARTCHAR 205
ENCODING 205
SWIDTH 288 0
DWIDTH 4 0
BBX 4 8 0 0
BITMAP
20
40
E0
40
40
40
40
E0
ENDCHAR
STARTCHAR 206
ENCODING 206
SWIDTH 288 0
DWIDTH 4 0
BBX 4 8 0 0
BITMAP
40
A0
E0
40
40
40
40
E0
ENDCHAR
STARTCHAR 207
ENCODING 207
SWIDTH 288 0
DWIDTH 4 0
BBX 4 8 0 0
BITMAP
A0
00
E0
40
40
40
40
E0
ENDCHAR
STARTCHAR 208
ENCODING 208
SWIDTH 432 0
DWIDTH 6 0
BBX 6 8 0 0
BITMAP
00
70
48
48
E8
48
48
70
ENDCHAR
STARTCHAR 209
ENCODING 209
SWIDTH 360 0
DWIDTH 5 0
BBX 5 8 0 0
BITMAP
50
A0
E0
90
90
90
90
90
ENDCHAR
STARTCHAR 210
ENCODING 210
SWIDTH 360 0
DWIDTH 5 0
BBX 5 8 0 0
BITMAP
80
40
60
90
90
90
90
60
ENDCHAR
STARTCHAR 211
ENCODING 211
SWIDTH 360 0
DWIDTH 5 0
BBX 5 8 0 0
BITMAP
10
20
60
90
90
90
90
60
ENDCHAR
STARTCHAR 212
ENCODING 212
SWIDTH 360 0
DWIDTH 5 0
BBX 5 8 0 0
BITMAP
60
90
60
90
90
90
90
60
ENDCHAR
STARTCHAR 213
ENCODING 213
SWIDTH 360 0
DWIDTH 5 0
BBX 5 8 0 0
BITMAP
50
A0
60
90
90
90
90
60
ENDCHAR
STARTCHAR 214
ENCODING 214
SWIDTH 360 0
DWIDTH 5 0
BBX 5 8 0 0
BITMAP
90
00
60
90
90
90
90
60
ENDCHAR
STARTCHAR 215
ENCODING 215
SWIDTH 432 0
DWIDTH 6 0
BBX 6 8 0 0
BITMAP
00
00
88
50
20
50
88
00
ENDCHAR
STARTCHAR 216
ENCODING 216
SWIDTH 576 0
DWIDTH 8 0
BBX 8 8 0 0
BITMAP
00
02
3C
4C
54
64
78
80
ENDCHAR
STARTCHAR 217
ENCODING 217
SWIDTH 360 0
DWIDTH 5 0
BBX 5 8 0 0
BITMAP
40
20
90
90
90
90
90
60
ENDCHAR
STARTCHAR 218
ENCODING 218
SWIDTH 360 0
DWIDTH 5 0
BBX 5 8 0 0
BITMAP
20
40
90
90
90
90
90
60
ENDCHAR
STARTCHAR 219
ENCODING 219
SWIDTH 360 0
DWIDTH 5 0
BBX 5 8 0 0
BITMAP
60
90
00
90
90
90
90
60
ENDCHAR
STARTCHAR 220
ENCODING 220
SWIDTH 360 0
DWIDTH 5 0
BBX 5 8 0 0
BITMAP
90
00
90
90
90
90
90
60
ENDCHAR
STARTCHAR 221
ENCODING 221
SWIDTH 432 0
DWIDTH 6 0
BBX 6 8 0 0
BITMAP
10
20
88
50
20
20
20
20
ENDCHAR
STARTCHAR 222
ENCODING 222
SWIDTH 360 0
DWIDTH 5 0
BBX 5 8 0 0
BITMAP
00
80
E0
90
E0
80
80
80
ENDCHAR
STARTCHAR 223
ENCODING 223
SWIDTH 432 0
DWIDTH 5 0
BBX 5 8 0 0
BITMAP
00
60
90
90
A0
90
A0
80
ENDCHAR
STARTCHAR 224
ENCODING 224
SWIDTH 360 0
DWIDTH 5 0
BBX 5 8 0 0
BITMAP
40
20
00
60
10
70
90
70
ENDCHAR
STARTCHAR 225
ENCODING 225
SWIDTH 360 0
DWIDTH 5 0
BBX 5 8 0 0
BITMAP
20
40
00
60
10
70
90
70
ENDCHAR
STARTCHAR 226
ENCODING 226
SWIDTH 360 0
DWIDTH 5 0
BBX 5 8 0 0
BITMAP
60
90
00
60
10
70
90
70
ENDCHAR
STARTCHAR 227
ENCODING 227
SWIDTH 360 0
DWIDTH 5 0
BBX 5 8 0 0
BITMAP
50
A0
00
60
10
70
90
70
ENDCHAR
STARTCHAR 228
ENCODING 228
SWIDTH 360 0
DWIDTH 5 0
BBX 5 8 0 0
BITMAP
00
90
00
60
10
70
90
70
ENDCHAR
STARTCHAR 229
ENCODING 229
SWIDTH 360 0
DWIDTH 5 0
BBX 5 8 0 0
BITMAP
00
60
90
60
10
70
90
70
ENDCHAR
STARTCHAR 230
ENCODING 230
SWIDTH 576 0
DWIDTH 8 0
BBX 8 8 0 0
BITMAP
00
00
00
6C
12
7E
90
7E
ENDCHAR
STARTCHAR 231
ENCODING 231
SWIDTH 432 0
DWIDTH 6 0
BBX 6 8 0 0
BITMAP
00
00
00
78
80
80
78
20
ENDCHAR
STARTCHAR 232
ENCODING 232
SWIDTH 360 0
DWIDTH 5 0
BBX 5 8 0 0
BITMAP
40
20
00
60
90
F0
80
70
ENDCHAR
STARTCHAR 233
ENCODING 233
SWIDTH 360 0
DWIDTH 5 0
BBX 5 8 0 0
BITMAP
20
40
00
60
90
F0
80
70
ENDCHAR
STARTCHAR 234
ENCODING 234
SWIDTH 360 0
DWIDTH 5 0
BBX 5 8 0 0
BITMAP
60
90
00
60
90
F0
80
70
ENDCHAR
STARTCHAR 235
ENCODING 235
SWIDTH 360 0
DWIDTH 5 0
BBX 5 8 0 0
BITMAP
00
90
00
60
90
F0
80
70
ENDCHAR
STARTCHAR 236
ENCODING 236
SWIDTH 216 0
DWIDTH 3 0
BBX 3 8 0 0
BITMAP
80
40
00
80
80
80
80
80
ENDCHAR
STARTCHAR 237
ENCODING 237
SWIDTH 216 0
DWIDTH 3 0
BBX 3 8 0 0
BITMAP
40
80
00
80
80
80
80
80
ENDCHAR
STARTCHAR 238
ENCODING 238
SWIDTH 288 0
DWIDTH 4 0
BBX 4 8 0 0
BITMAP
40
A0
00
40
40
40
40
40
ENDCHAR
STARTCHAR 239
ENCODING 239
SWIDTH 288 0
DWIDTH 4 0
BBX 4 8 0 0
BITMAP
00
A0
00
40
40
40
40
40
ENDCHAR
STARTCHAR 240
ENCODING 240
SWIDTH 360 0
DWIDTH 5 0
BBX 5 8 0 0
BITMAP
40
C0
20
60
90
90
90
60
ENDCHAR
STARTCHAR 241
ENCODING 241
SWIDTH 360 0
DWIDTH 5 0
BBX 5 8 0 0
BITMAP
50
A0
00
E0
90
90
90
90
ENDCHAR
STARTCHAR 242
ENCODING 242
SWIDTH 360 0
DWIDTH 5 0
BBX 5 8 0 0
BITMAP
80
40
00
60
90
90
90
60
ENDCHAR
STARTCHAR 243
ENCODING 243
SWIDTH 360 0
DWIDTH 5 0
BBX 5 8 0 0
BITMAP
10
20
00
60
90
90
90
60
ENDCHAR
STARTCHAR 244
ENCODING 244
SWIDTH 360 0
DWIDTH 5 0
BBX 5 8 0 0
BITMAP
60
90
00
60
90
90
90
60
ENDCHAR
STARTCHAR 245
ENCODING 245
SWIDTH 360 0
DWIDTH 5 0
BBX 5 8 0 0
BITMAP
50
A0
00
60
90
90
90
60
ENDCHAR
STARTCHAR 246
ENCODING 246
SWIDTH 360 0
DWIDTH 5 0
BBX 5 8 0 0
BITMAP
00
90
00
60
90
90
90
60
ENDCHAR
STARTCHAR 247
ENCODING 247
SWIDTH 432 0
DWIDTH 6 0
BBX 6 8 0 0
BITMAP
00
00
20
00
F8
00
20
00
ENDCHAR
STARTCHAR 248
ENCODING 248
SWIDTH 504 0
DWIDTH 7 0
BBX 7 8 0 0
BITMAP
00
00
74
88
94
A4
44
B8
ENDCHAR
STARTCHAR 249
ENCODING 249
SWIDTH 360 0
DWIDTH 5 0
BBX 5 8 0 0
BITMAP
40
20
00
90
90
90
90
60
ENDCHAR
STARTCHAR 250
ENCODING 250
SWIDTH 360 0
DWIDTH 5 0
BBX 5 8 0 0
BITMAP
20
40
00
90
90
90
90
60
ENDCHAR
STARTCHAR 251
ENCODING 251
SWIDTH 360 0
DWIDTH 5 0
BBX 5 8 0 0
BITMAP
60
90
00
90
90
90
90
60
ENDCHAR
STARTCHAR 252
ENCODING 252
SWIDTH 360 0
DWIDTH 5 0
BBX 5 8 0 0
BITMAP
00
90
00
90
90
90
90
60
ENDCHAR
STARTCHAR 253
ENCODING 253
SWIDTH 360 0
DWIDTH 5 0
BBX 5 8 0 0
BITMAP
40
20
00
90
90
70
10
60
ENDCHAR
STARTCHAR 254
ENCODING 254
SWIDTH 504 0
DWIDTH 7 0
BBX 7 8 0 0
BITMAP
00
80
B8
C4
84
C4
B8
80
ENDCHAR
STARTCHAR 255
ENCODING 255
SWIDTH 360 0
DWIDTH 5 0
BBX 5 8 0 0
BITMAP
00
90
00
90
90
70
10
60
ENDCHAR
STARTCHAR arrowright
ENCODING 8594
SWIDTH 360 0
DWIDTH 6 0
BBX 6 8 0 0
BITMAP
00
00
00
10
F8
10
00
00
ENDCHAR
STARTCHAR whitearrowleft
ENCODING 8678
SWIDTH 360 0
DWIDTH 13 0
BBX 13 8 0 0
BITMAP
0000
1000
3000
7FF0
FFF0
7FF0
3000
1000
ENDCHAR
STARTCHAR whitearrowright
ENCODING 8680
SWIDTH 360 0
DWIDTH 13 0
BBX 13 8 0 0
BITMAP
0000
0080
00C0
FFE0
FFF0
FFE0
00C0
0080
ENDCHAR
STARTCHAR longarrowleft
ENCODING 10229
SWIDTH 360 0
DWIDTH 13 0
BBX 13 8 0 0
BITMAP
0000
1000
2000
4000
FFF0
4000
2000
1000
ENDCHAR
STARTCHAR longarrowright
ENCODING 10230
SWIDTH 360 0
DWIDTH 13 0
BBX 13 8 0 0
BITMAP
0000
0080
0040
0020
FFF0
0020
0040
0080
ENDCHAR
STARTCHAR replacement
ENCODING 65533
SWIDTH 360 0
DWIDTH 5 0
BBX 5 8 0 0
BITMAP
00
00
00
F0
90
90
90
F0
ENDCHAR
ENDFONT
